solid OpenSCAD_Model
  facet normal -1 0 0
    outer loop
      vertex 0 0 0
      vertex 0 150 1
      vertex 0 150 0
    endloop
  endfacet
  facet normal -1 -0 0
    outer loop
      vertex 0 150 1
      vertex 0 0 0
      vertex 0 0 1
    endloop
  endfacet
  facet normal 0 0 1
    outer loop
      vertex 150 150 1
      vertex 149 149 1
      vertex 150 0 1
    endloop
  endfacet
  facet normal 0 0 1
    outer loop
      vertex 150 150 1
      vertex 1 149 1
      vertex 149 149 1
    endloop
  endfacet
  facet normal 0 0 1
    outer loop
      vertex 1 149 1
      vertex 0 150 1
      vertex 1 1 1
    endloop
  endfacet
  facet normal -0 0 1
    outer loop
      vertex 0 150 1
      vertex 1 149 1
      vertex 150 150 1
    endloop
  endfacet
  facet normal -0 0 1
    outer loop
      vertex 149 1 1
      vertex 150 0 1
      vertex 149 149 1
    endloop
  endfacet
  facet normal -0 0 1
    outer loop
      vertex 1 1 1
      vertex 150 0 1
      vertex 149 1 1
    endloop
  endfacet
  facet normal 0 0 1
    outer loop
      vertex 1 1 1
      vertex 0 0 1
      vertex 150 0 1
    endloop
  endfacet
  facet normal 0 0 1
    outer loop
      vertex 0 0 1
      vertex 1 1 1
      vertex 0 150 1
    endloop
  endfacet
  facet normal 1 -0 0
    outer loop
      vertex 150 0 1
      vertex 150 150 0
      vertex 150 150 1
    endloop
  endfacet
  facet normal 1 0 0
    outer loop
      vertex 150 150 0
      vertex 150 0 1
      vertex 150 0 0
    endloop
  endfacet
  facet normal 0 0 -1
    outer loop
      vertex 150 0 0
      vertex 149 1 0
      vertex 150 150 0
    endloop
  endfacet
  facet normal 0 0 -1
    outer loop
      vertex 150 0 0
      vertex 1 1 0
      vertex 149 1 0
    endloop
  endfacet
  facet normal -0 0 -1
    outer loop
      vertex 1 1 0
      vertex 0 0 0
      vertex 1 149 0
    endloop
  endfacet
  facet normal 0 0 -1
    outer loop
      vertex 0 0 0
      vertex 1 1 0
      vertex 150 0 0
    endloop
  endfacet
  facet normal 0 0 -1
    outer loop
      vertex 149 149 0
      vertex 150 150 0
      vertex 149 1 0
    endloop
  endfacet
  facet normal 0 0 -1
    outer loop
      vertex 1 149 0
      vertex 150 150 0
      vertex 149 149 0
    endloop
  endfacet
  facet normal 0 0 -1
    outer loop
      vertex 1 149 0
      vertex 0 150 0
      vertex 150 150 0
    endloop
  endfacet
  facet normal 0 0 -1
    outer loop
      vertex 0 150 0
      vertex 1 149 0
      vertex 0 0 0
    endloop
  endfacet
  facet normal 0 -1 0
    outer loop
      vertex 0 0 0
      vertex 150 0 1
      vertex 0 0 1
    endloop
  endfacet
  facet normal 0 -1 -0
    outer loop
      vertex 150 0 1
      vertex 0 0 0
      vertex 150 0 0
    endloop
  endfacet
  facet normal 0 1 -0
    outer loop
      vertex 150 150 0
      vertex 0 150 1
      vertex 150 150 1
    endloop
  endfacet
  facet normal 0 1 0
    outer loop
      vertex 0 150 1
      vertex 150 150 0
      vertex 0 150 0
    endloop
  endfacet
  facet normal 1 -0 0
    outer loop
      vertex 1 1 1
      vertex 1 149 0
      vertex 1 149 1
    endloop
  endfacet
  facet normal 1 0 0
    outer loop
      vertex 1 149 0
      vertex 1 1 1
      vertex 1 1 0
    endloop
  endfacet
  facet normal -1 0 0
    outer loop
      vertex 149 1 0
      vertex 149 149 1
      vertex 149 149 0
    endloop
  endfacet
  facet normal -1 -0 0
    outer loop
      vertex 149 149 1
      vertex 149 1 0
      vertex 149 1 1
    endloop
  endfacet
  facet normal 0 1 -0
    outer loop
      vertex 149 1 0
      vertex 1 1 1
      vertex 149 1 1
    endloop
  endfacet
  facet normal 0 1 0
    outer loop
      vertex 1 1 1
      vertex 149 1 0
      vertex 1 1 0
    endloop
  endfacet
  facet normal 0 -1 0
    outer loop
      vertex 1 149 0
      vertex 149 149 1
      vertex 1 149 1
    endloop
  endfacet
  facet normal 0 -1 -0
    outer loop
      vertex 149 149 1
      vertex 1 149 0
      vertex 149 149 0
    endloop
  endfacet
endsolid OpenSCAD_Model
